<?xml version="1.0" standalone="no"?>
<!DOCTYPE svg PUBLIC "-//W3C//DTD SVG 20010904//EN"
 "http://www.w3.org/TR/2001/REC-SVG-20010904/DTD/svg10.dtd">
<svg version="1.0" xmlns="http://www.w3.org/2000/svg"
 width="32.000000pt" height="32.000000pt" viewBox="0 0 32.000000 32.000000"
 preserveAspectRatio="xMidYMid meet">

<g transform="translate(0.000000,32.000000) scale(0.100000,-0.100000)"
fill="#000000" stroke="none">
<path d="M80 218 c1 -35 8 -51 40 -88 l40 -45 40 45 c32 37 39 53 40 88 0 52
-17 55 -54 11 l-26 -31 -26 31 c-37 44 -54 41 -54 -11z"/>
<path d="M50 205 c0 -24 9 -45 33 -72 l32 -37 -33 24 c-18 13 -35 33 -37 45
-2 11 -6 29 -8 40 -3 11 -5 4 -6 -15 -1 -42 1 -44 61 -93 60 -48 71 -31 18 26
-31 35 -40 52 -40 81 0 20 -4 36 -10 36 -5 0 -10 -16 -10 -35z m84 -121 c5
-14 4 -15 -9 -4 -17 14 -19 20 -6 20 5 0 12 -7 15 -16z"/>
<path d="M250 204 c0 -29 -9 -46 -40 -81 -53 -57 -42 -74 18 -26 60 49 62 51
61 93 -1 19 -3 26 -6 15 -2 -11 -6 -29 -8 -40 -2 -12 -19 -32 -37 -45 l-33
-24 33 37 c23 27 32 48 32 72 0 19 -4 35 -10 35 -5 0 -10 -16 -10 -36z m-40
-108 c0 -2 -8 -10 -17 -17 -16 -13 -17 -12 -4 4 13 16 21 21 21 13z"/>
</g>
</svg>
